# xmcd
#
# Track frame offsets:
#	150
#	21339
#	42638
#	67547
#	92953
#	113502
#	138506
#	162475
#	189789
#	209841
#	228655
#	251391
#
# Disc length: 3650 seconds
#
# Revision: 0
# Processed by: cddbd v1.5.2PL0 Copyright (c) Steve Scherf et al.
# Submitted via: EasyCDDAExtractor 16.0.9.1
#
DISCID=a50e400c
DTITLE=Khánh Hà - KH61: Tình Khúc Trịnh Công Sơn
DYEAR=2002
DGENRE=Pop
TTITLE0=Ru Em Từng Ngón Xuân Nồng
TTITLE1=Ướt Mi
TTITLE2=Tạ Ơn
TTITLE3=Diễm Xưa
TTITLE4=Nghe Những Tàn Phai
TTITLE5=Này Em Có Nhớ
TTITLE6=Chiều Một Mình Qua Phố
TTITLE7=Biển Nhớ
TTITLE8=Lặng Lẽ Nơi Này
TTITLE9=Phôi Pha
TTITLE10=Nhìn Những Mùa Thu Đi
TTITLE11=Hạ Trắng
EXTD=
EXTT0=
EXTT1=
EXTT2=
EXTT3=
EXTT4=
EXTT5=
EXTT6=
EXTT7=
EXTT8=
EXTT9=
EXTT10=
EXTT11=
PLAYORDER=
